<svg id="Capa_1" enable-background="new 0 0 496 496" height="512" viewBox="0 0 496 496" width="512" xmlns="http://www.w3.org/2000/svg"><g><path d="m188.192 376.45 21.616 20.803c10.087-10.481 23.65-16.253 38.192-16.253l10-15-10-15c-22.773 0-44.013 9.039-59.808 25.45z" fill="#264497"/><path d="m248 351v30c14.757 0 28.962 6.226 38.973 17.082l22.054-20.338c-15.673-16.996-37.917-26.744-61.027-26.744z" fill="#182958"/><circle cx="124.081" cy="404" fill="#dff1fa" r="92"/><circle cx="371.919" cy="404" fill="#b2def5" r="92"/><path d="m248 26-52-26h-62l-31.126 101 79.126 15 66-15 15-39z" fill="#ffe79b"/><path d="m393.126 101-31.126-101h-62l-52 26v75l76 13z" fill="#ffb555"/><path d="m85 159-60 22c0 60 98 92 223 92l17-65-17-49-68-15z" fill="#ffe79b"/><path d="m248 101h-145.126l-17.874 58h163l16-31z" fill="#ff7037"/><path d="m411 159-80-16-83 16v114c125 0 223-32 223-92z" fill="#ffb555"/><path d="m248 159h163l-17.874-58h-145.126z" fill="#ff415b"/></g></svg>