<?xml version="1.0" encoding="iso-8859-1"?>
<!-- Generator: Adobe Illustrator 19.0.0, SVG Export Plug-In . SVG Version: 6.00 Build 0)  -->
<svg version="1.1" id="Capa_1" xmlns="http://www.w3.org/2000/svg" xmlns:xlink="http://www.w3.org/1999/xlink" x="0px" y="0px"
	 viewBox="0 0 512 512" style="enable-background:new 0 0 512 512;" xml:space="preserve">
<path style="fill:#FF4F19;" d="M397.42,310.01c0,37.7,30.56,68.26,68.26,68.26c14.84,0,28.57-4.76,39.77-12.8V512H365.57
	c8.04-11.2,12.8-24.93,12.8-39.77c0-37.7-30.56-68.25-68.26-68.25c-0.37,0-0.74,0-1.11,0.01c-37.18,0.59-67.14,30.91-67.14,68.24
	c0,14.84,4.75,28.57,12.8,39.77H114.78V363.87c-11.24,8.14-25.04,12.94-39.97,12.94c-37.7,0-68.26-30.56-68.26-68.25
	c0-37.7,30.56-68.26,68.26-68.26c14.93,0,28.73,4.81,39.97,12.95V108.02h139.88c-8.05-11.2-12.8-24.92-12.8-39.76
	c0-37.33,29.96-67.66,67.14-68.25C309.37,0,309.74,0,310.11,0c37.7,0,68.26,30.56,68.26,68.26c0,14.84-4.76,28.56-12.8,39.76h139.88
	v146.54c-11.2-8.05-24.93-12.8-39.77-12.8C427.98,241.76,397.42,272.32,397.42,310.01z"/>
<path style="fill:#EE2600;" d="M397.42,310.01c0,37.7,30.56,68.26,68.26,68.26c14.84,0,28.57-4.76,39.77-12.8V512H365.57
	c8.04-11.2,12.8-24.93,12.8-39.77c0-37.7-30.56-68.25-68.26-68.25c-0.37,0-0.74,0-1.11,0.01V0.01C309.37,0,309.74,0,310.11,0
	c37.7,0,68.26,30.56,68.26,68.26c0,14.84-4.76,28.56-12.8,39.76h139.88v146.54c-11.2-8.05-24.93-12.8-39.77-12.8
	C427.98,241.76,397.42,272.32,397.42,310.01z"/>
<g>
</g>
<g>
</g>
<g>
</g>
<g>
</g>
<g>
</g>
<g>
</g>
<g>
</g>
<g>
</g>
<g>
</g>
<g>
</g>
<g>
</g>
<g>
</g>
<g>
</g>
<g>
</g>
<g>
</g>
</svg>
