<?xml version="1.0" encoding="iso-8859-1"?>
<!-- Generator: Adobe Illustrator 19.0.0, SVG Export Plug-In . SVG Version: 6.00 Build 0)  -->
<svg version="1.1" id="Capa_1" xmlns="http://www.w3.org/2000/svg" xmlns:xlink="http://www.w3.org/1999/xlink" x="0px" y="0px"
	 viewBox="0 0 404.416 404.416" style="enable-background:new 0 0 404.416 404.416;" xml:space="preserve">
<g>
	<path style="fill:#1FC3F3;" d="M75.908,85.2h156.56c9.777,0.022,17.698,7.943,17.72,17.72v286.12c0,22.24-19.24,15.44-28.48,1.76
		l-67.52-99.88l-67.56,100c-9.24,13.68-28.4,22.6-28.4-1.84V102.92C58.25,93.158,66.146,85.244,75.908,85.2z"/>
	<path style="fill:#047BAF;" d="M171.908,0h156.56c9.777,0.022,17.698,7.943,17.72,17.72v286.12c0,22.24-19.24,15.44-28.48,1.76
		l-67.52-99.88v-102.8c-0.044-9.746-7.934-17.636-17.68-17.68h-78.32V17.72C154.21,7.943,162.13,0.022,171.908,0L171.908,0z"/>
</g>
<g>
</g>
<g>
</g>
<g>
</g>
<g>
</g>
<g>
</g>
<g>
</g>
<g>
</g>
<g>
</g>
<g>
</g>
<g>
</g>
<g>
</g>
<g>
</g>
<g>
</g>
<g>
</g>
<g>
</g>
</svg>
