<?xml version="1.0"?>
<svg xmlns="http://www.w3.org/2000/svg" xmlns:xlink="http://www.w3.org/1999/xlink" xmlns:svgjs="http://svgjs.com/svgjs" version="1.1" width="512" height="512" x="0" y="0" viewBox="0 0 24 24" style="enable-background:new 0 0 512 512" xml:space="preserve"><g><path xmlns="http://www.w3.org/2000/svg" d="m16.68 3.03-8-3c-.12-.04-.24-.04-.36 0l-8 3c-.19.07-.32.26-.32.47v6.43c0 9.12 8.31 11.04 8.39 11.06.04.01.07.01.11.01s.07 0 .11-.01c.02 0 .41-.09 1.01-.32-.4-.98-.62-2.05-.62-3.17 0-4.52 3.54-8.23 8-8.49v-5.51c0-.21-.13-.4-.32-.47z" fill="#ffffff" data-original="#000000" style=""/><path xmlns="http://www.w3.org/2000/svg" d="m17.5 11c-3.584 0-6.5 2.916-6.5 6.5s2.916 6.5 6.5 6.5 6.5-2.916 6.5-6.5-2.916-6.5-6.5-6.5zm0 2c.879 0 1.693.263 2.386.7l-6.186 6.186c-.437-.694-.7-1.508-.7-2.386 0-2.481 2.019-4.5 4.5-4.5zm0 9c-.879 0-1.693-.263-2.386-.7l6.187-6.186c.437.693.7 1.507.7 2.386-.001 2.481-2.02 4.5-4.501 4.5z" fill="#ffffff" data-original="#000000" style=""/></g></svg>
