<?xml version="1.0" encoding="iso-8859-1"?>
<!-- Generator: Adobe Illustrator 19.0.0, SVG Export Plug-In . SVG Version: 6.00 Build 0)  -->
<svg version="1.1" id="Capa_1" xmlns="http://www.w3.org/2000/svg" xmlns:xlink="http://www.w3.org/1999/xlink" x="0px" y="0px"
	 viewBox="0 0 512.001 512.001" style="enable-background:new 0 0 512.001 512.001;" xml:space="preserve">
<path style="fill:#1138F7;" d="M62.968,472.636c-16.649,0-32.41-6.482-44.294-18.269C6.713,442.502,0.077,426.683,0,409.822V101.851
	c0.463-34.628,28.725-62.505,63.084-62.505c0.096,0,0.174,0,0.27,0h110.078c16.957,0,33.471,6.984,45.297,19.176l50.563,52.3
	c4.572,4.726,10.977,7.427,17.575,7.427h162.05c34.783,0,63.084,28.301,63.084,63.084v228.027
	c0.077,16.764-6.405,32.622-18.269,44.622c-11.845,11.961-27.683,18.597-44.525,18.674H63.277
	C63.161,472.636,63.084,472.636,62.968,472.636z M63.161,77.929c-13.427,0-24.404,10.823-24.578,24.172v307.258
	c0.019,6.849,2.604,13.003,7.254,17.594c4.611,4.572,10.726,7.099,17.227,7.099c0.039,0,0.077,0,0.116,0h385.871
	c6.54-0.039,12.655-2.624,17.266-7.254c4.611-4.649,7.138-10.823,7.099-17.343V181.332c0-13.504-10.977-24.5-24.5-24.5h-162.05
	c-16.996,0-33.51-6.984-45.316-19.195l-50.544-52.28c-4.572-4.707-10.977-7.427-17.575-7.427H63.277
	C63.238,77.929,63.199,77.929,63.161,77.929z"/>
<g>
</g>
<g>
</g>
<g>
</g>
<g>
</g>
<g>
</g>
<g>
</g>
<g>
</g>
<g>
</g>
<g>
</g>
<g>
</g>
<g>
</g>
<g>
</g>
<g>
</g>
<g>
</g>
<g>
</g>
</svg>
