<?xml version="1.0" encoding="iso-8859-1"?>
<!-- Generator: Adobe Illustrator 19.0.0, SVG Export Plug-In . SVG Version: 6.00 Build 0)  -->
<svg version="1.1" id="Capa_1" xmlns="http://www.w3.org/2000/svg" xmlns:xlink="http://www.w3.org/1999/xlink" x="0px" y="0px"
	 viewBox="0 0 512 512" style="enable-background:new 0 0 512 512;" xml:space="preserve">
<path style="fill:#FD3018;" d="M416.667,0H95.334c-8.285,0-15,6.717-15,15v482c0,6.067,3.654,11.536,9.26,13.858
	c1.855,0.769,3.805,1.142,5.736,1.142c3.904,0,7.74-1.523,10.609-4.394l150.063-150.062L406.06,507.606
	c4.289,4.29,10.74,5.572,16.347,3.252c5.604-2.322,9.26-7.791,9.26-13.858V15C431.667,6.717,424.951,0,416.667,0z"/>
<path style="fill:#E61E14;" d="M416.667,0H255.999v357.548l0.003-0.003L406.06,507.606c4.289,4.29,10.74,5.572,16.347,3.252
	c5.604-2.322,9.26-7.791,9.26-13.858V15C431.667,6.717,424.951,0,416.667,0z"/>
<g>
</g>
<g>
</g>
<g>
</g>
<g>
</g>
<g>
</g>
<g>
</g>
<g>
</g>
<g>
</g>
<g>
</g>
<g>
</g>
<g>
</g>
<g>
</g>
<g>
</g>
<g>
</g>
<g>
</g>
</svg>
