<svg height="511pt" viewBox="1 1 511.99988 511" width="511pt" xmlns="http://www.w3.org/2000/svg"><path d="m305.792969 206.707031-56.382813-55.207031-235.011718 235.011719c-19.199219 19.199219-19.199219 50.441406 0 69.640625l41.949218 41.949218c19.199219 19.195313 50.441406 19.195313 69.640625 0l236.179688-236.179687zm0 0" fill="#00e2f8"/><g fill="#0082ff"><path d="m305.792969 206.707031-270.417969 270.417969 20.972656 20.976562c19.199219 19.195313 50.441406 19.195313 69.640625 0l236.179688-236.179687zm0 0"/><path d="m35.945312 364.960938-21.546874 21.550781c-19.199219 19.199219-19.199219 50.441406 0 69.640625l41.949218 41.949218c19.199219 19.195313 50.441406 19.195313 69.640625 0l21.546875-21.546874zm0 0"/><path d="m500.324219 141.996094-129.820313-129.824219c-15.5625-15.5625-40.878906-15.5625-56.4375-.003906l-42.753906 42.753906c-51.355469 51.355469-51.355469 134.910156 0 186.265625 51.351562 51.355469 134.910156 51.355469 186.265625 0l42.753906-42.753906c15.558594-15.558594 15.558594-40.875-.007812-56.4375zm0 0"/></g><path d="m91.742188 420.757812-56.367188 56.367188 20.972656 20.976562c19.199219 19.195313 50.441406 19.195313 69.640625 0l21.546875-21.546874zm0 0" fill="#2c4ce6"/><path d="m500.324219 141.996094-64.910157-64.910156-164.101562 164.101562c51.351562 51.355469 134.910156 51.355469 186.265625 0l42.753906-42.753906c15.558594-15.558594 15.558594-40.875-.007812-56.4375zm0 0" fill="#2c4ce6"/><path d="m500.324219 141.996094-129.820313-129.824219c-15.5625-15.5625-40.878906-15.5625-56.4375-.003906l-35.953125 35.949219 186.265625 186.269531 35.953125-35.953125c15.558594-15.558594 15.558594-40.875-.007812-56.4375zm0 0" fill="#005085"/><path d="m249.941406 276.109375c-2.40625-2.40625-5.183594-4.210937-8.144531-5.40625-8.875-3.582031-19.433594-1.78125-26.613281 5.398437l-77.285156 77.285157c-7.179688 7.179687-8.980469 17.734375-5.394532 26.609375 1.1875 2.972656 2.988282 5.75 5.394532 8.15625l49.019531 49.019531 112.042969-112.042969zm0 0" fill="#001b5b"/><path d="m500.324219 141.996094-64.910157-64.910156-64.167968 64.167968 93.136718 93.132813 35.949219-35.953125c15.558594-15.558594 15.558594-40.875-.007812-56.4375zm0 0" fill="#001b5b"/></svg>