<?xml version="1.0"?>
<svg xmlns="http://www.w3.org/2000/svg" xmlns:xlink="http://www.w3.org/1999/xlink" xmlns:svgjs="http://svgjs.com/svgjs" version="1.1" width="512" height="512" x="0" y="0" viewBox="0 0 608.579 608.579" style="enable-background:new 0 0 512 512" xml:space="preserve" class=""><g><g xmlns="http://www.w3.org/2000/svg"><g id="Page-1_3_"><g id="_x30_04---Fox"><path id="Path_21_" clip-rule="evenodd" d="m332.655 521.466c-7.855-24.901-13.117-50.546-15.702-76.528-4.149.131-8.254.305-12.61.305-8.613 0-16.628-.338-24.337-.806-1.139 26.128 2.326 52.253 10.236 77.182z" fill-rule="evenodd" fill="#ffffff" data-original="#000000" style="" class=""/><circle id="Oval_8_" clip-rule="evenodd" cx="184.564" cy="271.018" fill-rule="evenodd" r="10.889" fill="#ffffff" data-original="#000000" style="" class=""/><path id="Path_20_" clip-rule="evenodd" d="m318.423 350.432c5.245-6.395 8.952-13.909 10.835-21.963-8.126-2.15-16.51-3.162-24.914-3.005-8.404-.156-16.789.855-24.914 3.005 1.899 8.059 5.625 15.573 10.889 21.963 3.689 4.055 8.624 6.764 14.025 7.699 5.42-.924 10.377-3.634 14.079-7.699z" fill-rule="evenodd" fill="#ffffff" data-original="#000000" style="" class=""/><path id="Path_19_" clip-rule="evenodd" d="m304.344 379.908c-35.983.247-71.89-3.36-107.105-10.758-1.816 9.739-2.216 19.689-1.187 29.542.423 3.965 3.017 7.365 6.729 8.82 32.627 11.35 67.026 16.753 101.562 15.952 34.528.8 68.919-4.6 101.54-15.942 3.728-1.459 6.335-4.872 6.762-8.853 1.02-9.847.617-19.789-1.198-29.52-35.214 7.4-71.12 11.006-107.103 10.759z" fill-rule="evenodd" fill="#ffffff" data-original="#000000" style="" class=""/><path id="Shape_6_" d="m90.091 143.964c-2.069 5.009-3.964 10.323-5.728 15.844 6.305-2.254 12.816-4.737 19.687-7.688 40.899-17.531 78.009-18.348 107.29-2.319 27.354 16.226 45.581 44.277 49.295 75.864 1.873 11.238 3.561 21.963 5.151 32.112 2.907 18.511 5.575 35.215 8.504 49.534 19.744-4.837 40.364-4.837 60.108 0 2.929-14.319 5.597-31.056 8.504-49.534 1.59-10.149 3.267-20.874 5.151-32.112 3.714-31.587 21.94-59.638 49.295-75.864 29.281-16.018 66.423-15.245 107.29 2.319 6.871 2.951 13.383 5.445 19.687 7.688-1.764-5.521-3.659-10.835-5.728-15.844-1.679-4.062-.751-8.735 2.352-11.847 34.845-34.976 34.562-109.98 33.636-132.117-58.964 8.385-90.455 27.103-106.451 41.378-6.482 5.795-15.817 7.115-23.651 3.343-37.769-16.83-78.8-25.079-120.139-24.152-41.445.08-82.46 8.397-120.662 24.468-7.817 3.514-16.977 2.028-23.281-3.779-12.969-11.574-44.079-32.394-106.506-41.16-.719 22.061-1.024 97.054 33.832 132.019 3.108 3.11 4.04 7.783 2.364 11.847zm376.609-89.78c15.451-11.182 32.84-19.405 51.287-24.25 3.474-1.032 7.235-.268 10.03 2.039 2.796 2.307 4.261 5.853 3.908 9.46-1.45 21.556-7.044 42.63-16.475 62.068-1.826 3.261-5.197 5.357-8.929 5.553h-.577c-3.532 0-6.844-1.713-8.885-4.595-8.752-12.384-19.061-23.59-30.674-33.342-2.529-2.121-3.96-5.274-3.89-8.574s1.633-6.39 4.249-8.402zm-385.996-22.192c2.789-2.291 6.529-3.061 9.996-2.058 18.447 4.845 35.837 13.068 51.287 24.25 2.617 2.012 4.179 5.102 4.249 8.402s-1.361 6.453-3.89 8.574c-11.61 9.748-21.916 20.951-30.664 33.331-2.041 2.889-5.359 4.607-8.896 4.606h-.577c-3.732-.196-7.103-2.293-8.929-5.553-9.453-19.447-15.062-40.537-16.519-62.111-.337-3.607 1.141-7.146 3.943-9.441z" fill="#ffffff" data-original="#000000" style="" class=""/><g clip-rule="evenodd" fill-rule="evenodd"><path id="Path_18_" d="m117.586 64.202c-5.438-3.005-11.073-5.639-16.867-7.884 1.172 6.96 2.801 13.835 4.878 20.58 3.833-4.399 7.829-8.645 11.989-12.696z" fill="#ffffff" data-original="#000000" style="" class=""/><path id="Path_17_" d="m138.307 598.082c.298 5.821 5.061 10.413 10.889 10.497h119.529c-7.08-6.253-13.399-13.318-18.827-21.049-.325 3.536-2.32 6.705-5.368 8.526-3.148 1.901-7.042 2.086-10.355.49-37.088-18.511-40.682-61.926-39.821-84.51-4.792 1.072-9.267 3.249-13.067 6.359-3.186 2.982-7.83 3.806-11.847 2.102-3.995-1.687-6.609-5.583-6.653-9.92 0-3.158.348-6.033.523-9.049-19.248 28.326-28.083 62.447-25.003 96.554z" fill="#ffffff" data-original="#000000" style="" class=""/><path id="Path_16_" d="m439.183 520.639c-4.07 1.686-8.755.753-11.869-2.363-3.779-3.047-8.209-5.182-12.947-6.239.86 22.584-2.733 65.966-39.821 84.51-3.259 1.639-7.122 1.537-10.29-.271-3.168-1.809-5.22-5.083-5.466-8.723-5.428 7.724-11.748 14.781-18.827 21.027h119.497c5.828-.084 10.591-4.676 10.889-10.497 3.071-34.14-5.779-68.289-25.045-96.64.185 3.038.534 5.945.534 9.136.01 4.386-2.613 8.353-6.655 10.06z" fill="#ffffff" data-original="#000000" style="" class=""/><path id="Path_15_" d="m507.969 56.318c-5.783 2.246-11.407 4.88-16.835 7.884 4.16 4.051 8.156 8.297 11.978 12.697 2.075-6.745 3.698-13.62 4.857-20.581z" fill="#ffffff" data-original="#000000" style="" class=""/><path id="Path_14_" d="m338.71 443.707c2.475 24.194 7.378 48.078 14.635 71.291 2.115 6.6.923 13.814-3.201 19.383-4.095 5.56-10.583 8.849-17.488 8.864h-42.467c-9.33.088-17.65-5.856-20.591-14.711-8.849-27.776-12.691-56.903-11.346-86.024-15.689-1.81-31.214-4.843-46.431-9.071-13.919 16.662-22.896 36.887-25.916 58.387 6.622-2.032 13.512-3.053 20.439-3.027 3.199-.001 6.236 1.404 8.306 3.843s2.963 5.665 2.441 8.821c-.087.501-7.023 45.201 16.05 67.926 2.412-4.444 5.465-8.509 9.06-12.065 2.669-2.67 6.53-3.767 10.203-2.899 3.674.867 6.636 3.576 7.829 7.157 8.963 19.859 24.559 35.979 44.112 45.593 19.574-9.631 35.183-25.779 44.144-45.669 1.216-3.556 4.179-6.234 7.84-7.084s7.501.247 10.16 2.903c3.595 3.556 6.647 7.621 9.06 12.065 23.074-22.725 16.138-67.425 16.05-67.926-.521-3.156.371-6.382 2.441-8.821s5.107-3.844 8.306-3.843c6.924-.04 13.815.966 20.439 2.984-3.018-21.494-11.983-41.717-25.883-58.387-19.028 5.269-38.513 8.722-58.192 10.31z" fill="#ffffff" data-original="#000000" style="" class=""/><circle id="Oval_7_" cx="424.123" cy="271.018" r="10.889" fill="#ffffff" data-original="#000000" style="" class=""/></g><path id="Shape_5_" d="m244.28 261.152c-1.59-10.083-3.267-20.744-5.118-31.894-2.545-25.017-16.722-47.375-38.264-60.347-23.205-12.686-53.738-11.575-88.267 3.267-33.97 15.86-70.976 24.163-108.466 24.337 18.511 45.734 80.024 148.429 263.809 160.494-11.607-18.947-16.638-50.928-23.694-95.857zm-59.716 42.533c-18.042 0-32.667-14.626-32.667-32.667s14.626-32.667 32.667-32.667 32.667 14.626 32.667 32.667-14.625 32.667-32.667 32.667z" fill="#ffffff" data-original="#000000" style="" class=""/><path id="Shape_4_" d="m496.057 172.134c-16.31-7.442-33.954-11.516-51.875-11.978-12.672-.225-25.194 2.772-36.391 8.711-21.542 12.972-35.719 35.33-38.264 60.347-1.862 11.15-3.528 21.778-5.118 31.894-7.056 44.928-12.087 76.909-23.695 95.824 183.786-12.032 245.331-114.771 263.7-160.505-37.457-.116-74.436-8.407-108.357-24.293zm-71.934 131.551c-18.042 0-32.667-14.626-32.667-32.667s14.626-32.667 32.667-32.667c18.042 0 32.667 14.626 32.667 32.667s-14.625 32.667-32.667 32.667z" fill="#ffffff" data-original="#000000" style="" class=""/></g></g></g></g></svg>
