<?xml version="1.0"?>
<svg xmlns="http://www.w3.org/2000/svg" xmlns:xlink="http://www.w3.org/1999/xlink" xmlns:svgjs="http://svgjs.com/svgjs" version="1.1" width="512" height="512" x="0" y="0" viewBox="0 0 605.072 605.072" style="enable-background:new 0 0 512 512" xml:space="preserve"><g><g xmlns="http://www.w3.org/2000/svg"><g id="Page-1_5_"><g id="_x30_06---Fox"><g clip-rule="evenodd" fill-rule="evenodd"><circle id="Oval_11_" cx="180.399" cy="503.984" r="10.889" fill="#ffffff" data-original="#000000" style=""/><path id="Path_39_" d="m503.804 289.284c-5.784 2.242-11.409 4.876-16.835 7.884 4.16 4.051 8.152 8.287 11.978 12.708 2.07-6.75 3.692-13.629 4.857-20.592z" fill="#ffffff" data-original="#000000" style=""/><path id="Path_38_" d="m314.258 583.398c5.245-6.395 8.952-13.909 10.835-21.963-8.126-2.149-16.51-3.16-24.914-3.005-8.404-.155-16.788.857-24.914 3.005 1.899 8.059 5.625 15.573 10.889 21.963 3.689 4.055 8.624 6.764 14.025 7.699 5.42-.924 10.377-3.634 14.079-7.699z" fill="#ffffff" data-original="#000000" style=""/></g><path id="Shape_12_" d="m263.809 589.931c-11.608-18.903-16.638-50.885-23.705-95.824-1.579-10.083-3.267-20.744-5.107-31.894-2.549-25.013-16.725-47.367-38.264-60.336-23.215-12.697-53.727-11.586-88.267 3.267-13.725 5.907-27.825 10.905-42.206 14.962h-.131c-21.449 6.414-43.742 9.564-66.129 9.342 18.479 45.68 80.013 148.418 263.809 160.483zm-83.41-118.614c18.042 0 32.667 14.626 32.667 32.667s-14.626 32.667-32.667 32.667-32.667-14.626-32.667-32.667 14.625-32.667 32.667-32.667z" fill="#ffffff" data-original="#000000" style=""/><circle id="Oval_10_" clip-rule="evenodd" cx="561.516" cy="57.532" fill-rule="evenodd" r="43.556" fill="#ffffff" data-original="#000000" style=""/><path id="Path_37_" clip-rule="evenodd" d="m300.179 155.534c101.268 0 156.868 42.38 183.176 71.628 7.1-2.646 14.853-5.151 23.324-7.437 7.443-24.333 11.244-49.634 11.281-75.08.029-11.778 1.514-23.507 4.421-34.921-7.422-5.542-13.586-12.593-18.087-20.689-49.229 11.76-85.588 5.662-123.765-1.002-26.462-5.35-53.357-8.27-80.35-8.722-152.033 0-186.464 94.495-194.043 144.073 3.8 1.22 7.394 2.483 10.889 3.778 26.286-29.248 81.885-71.628 183.154-71.628z" fill-rule="evenodd" fill="#ffffff" data-original="#000000" style=""/><path id="Path_36_" clip-rule="evenodd" d="m138.226 236.374c11.755 5.771 22.701 13.06 32.558 21.68 40.964-17.251 84.947-26.19 129.395-26.297 44.557-.951 88.769 7.997 129.449 26.199 9.846-8.582 20.773-15.838 32.504-21.582-25.426-25.785-75.069-59.062-161.953-59.062s-136.538 33.277-161.953 59.062z" fill-rule="evenodd" fill="#ffffff" data-original="#000000" style=""/><path id="Shape_11_" d="m85.926 376.941c-2.069 4.987-3.964 10.301-5.728 15.822 6.305-2.243 12.816-4.737 19.687-7.622 40.888-17.542 77.998-18.337 107.29-2.319 27.357 16.224 45.584 44.276 49.295 75.864 1.873 11.238 3.561 21.963 5.161 32.112 2.907 18.511 5.575 35.215 8.504 49.534 19.737-4.833 40.349-4.833 60.086 0 2.929-14.319 5.597-31.056 8.504-49.534 1.601-10.149 3.267-20.874 5.161-32.112 3.71-31.589 21.938-59.64 49.295-75.864 29.302-16.018 66.423-15.245 107.29 2.319 6.871 2.951 13.394 5.445 19.687 7.688-1.764-5.521-3.659-10.835-5.728-15.833-1.684-4.065-.756-8.744 2.352-11.858 34.845-34.965 34.562-109.98 33.636-132.117-58.964 8.395-90.455 27.103-106.451 41.378-6.485 5.79-15.816 7.109-23.651 3.343-37.765-16.849-78.796-25.116-120.139-24.206-41.448.08-82.467 8.397-120.673 24.468-7.808 3.515-16.959 2.042-23.27-3.746-12.969-11.608-44.09-32.428-106.506-41.193-.719 22.061-1.013 97.065 33.832 132.019 3.114 3.111 4.046 7.79 2.366 11.857zm376.609-89.791c15.45-11.185 32.839-19.407 51.287-24.25 3.474-1.032 7.235-.268 10.03 2.039s4.261 5.853 3.908 9.46c-1.445 21.557-7.039 42.632-16.475 62.068-1.828 3.264-5.204 5.361-8.94 5.553h-.566c-3.536.003-6.853-1.71-8.896-4.595-8.745-12.387-19.051-23.593-30.664-33.342-2.529-2.121-3.96-5.274-3.89-8.574s1.633-6.39 4.249-8.402zm-385.996-22.192c2.784-2.302 6.529-3.073 9.996-2.058 18.445 4.851 35.834 13.073 51.287 24.25 2.617 2.012 4.179 5.102 4.249 8.402s-1.361 6.453-3.89 8.574c-11.61 9.752-21.916 20.958-30.664 33.342-2.044 2.885-5.361 4.599-8.896 4.595h-.577c-3.732-.196-7.103-2.293-8.929-5.553-9.431-19.438-15.025-40.512-16.475-62.068-.363-3.613 1.099-7.17 3.899-9.484z" fill="#ffffff" data-original="#000000" style=""/><path id="Shape_10_" d="m600.249 429.394c-22.793.223-45.486-3.038-67.294-9.669-.24-.065-.479-.109-.708-.196-13.74-3.963-27.217-8.781-40.355-14.428-16.31-7.442-33.954-11.516-51.875-11.978-12.672-.225-25.194 2.772-36.391 8.711-21.542 12.972-35.719 35.33-38.264 60.347-1.862 11.15-3.528 21.778-5.107 31.894-7.067 44.928-12.098 76.909-23.705 95.824 183.784-12.033 245.329-114.771 263.699-160.505zm-180.291 107.257c-18.042 0-32.667-14.626-32.667-32.667s14.626-32.667 32.667-32.667c18.042 0 32.667 14.626 32.667 32.667s-14.625 32.667-32.667 32.667z" fill="#ffffff" data-original="#000000" style=""/><circle id="Oval_9_" clip-rule="evenodd" cx="419.958" cy="503.984" fill-rule="evenodd" r="10.889" fill="#ffffff" data-original="#000000" style=""/><path id="Path_35_" clip-rule="evenodd" d="m113.431 297.168c-5.43-3.006-11.058-5.64-16.845-7.884 1.17 6.961 2.803 13.837 4.889 20.58 3.79-4.399 7.786-8.645 11.956-12.696z" fill-rule="evenodd" fill="#ffffff" data-original="#000000" style=""/></g></g></g></g></svg>
