<?xml version="1.0" encoding="iso-8859-1"?>
<!-- Generator: Adobe Illustrator 19.0.0, SVG Export Plug-In . SVG Version: 6.00 Build 0)  -->
<svg version="1.1" id="Capa_1" xmlns="http://www.w3.org/2000/svg" xmlns:xlink="http://www.w3.org/1999/xlink" x="0px" y="0px"
	 viewBox="0 0 512 512" style="enable-background:new 0 0 512 512;" xml:space="preserve">
<path style="fill:#F3F3F3;" d="M354.667,466.133H157.333c-71.467-68.267-22.4-163.2,50.133-209.067
	C133.867,211.2,83.733,115.2,155.2,46.933h197.333C424,115.2,374.933,210.133,302.4,256C377.067,300.8,427.2,396.8,354.667,466.133z
	"/>
<path style="fill:#FFD15C;" d="M164.8,382.933c0-5.333,2.133-10.667,4.267-17.067c10.667-4.267,21.333-8.533,32-13.867
	c11.733-4.267,21.333-11.733,28.8-21.333c10.667-12.8,16-28.8,16-45.867v-55.467c-22.4-13.867-76.8-51.2-76.8-80H340.8
	c-7.467,27.733-53.333,62.933-74.667,78.933v55.467c0,18.133,6.4,34.133,17.067,46.933c7.467,8.533,17.067,14.933,27.733,19.2
	c10.667,4.267,22.4,9.6,33.067,13.867c2.133,5.333,4.267,11.733,4.267,17.067C348.267,476.8,164.8,477.867,164.8,382.933z"/>
<g>
	<path style="fill:#F3705A;" d="M409.067,0h-307.2c-12.8,0-22.4,9.6-22.4,22.4v1.067c0,12.8,9.6,22.4,22.4,22.4h308.267
		c12.8,0,22.4-9.6,22.4-22.4V22.4C431.467,9.6,421.867,0,409.067,0z"/>
	<path style="fill:#F3705A;" d="M101.867,512h308.267c12.8,0,22.4-9.6,22.4-22.4v-1.067c0-12.8-9.6-22.4-22.4-22.4H101.867
		c-12.8,0-22.4,9.6-22.4,22.4v1.067C79.467,502.4,89.067,512,101.867,512z"/>
</g>
<g>
</g>
<g>
</g>
<g>
</g>
<g>
</g>
<g>
</g>
<g>
</g>
<g>
</g>
<g>
</g>
<g>
</g>
<g>
</g>
<g>
</g>
<g>
</g>
<g>
</g>
<g>
</g>
<g>
</g>
</svg>
