<svg height="512pt" viewBox="-80 0 512 512" width="512pt" xmlns="http://www.w3.org/2000/svg"><path d="m256 415.601562h-160.664062c-8.285157 0-15-6.71875-15-15v-.007812c0-41.460938-14.480469-81.945312-40.773438-114-25.515625-31.179688-39.5625-70.570312-39.5625-110.925781 0-96.863281 78.804688-175.667969 175.667969-175.667969s175.667969 78.804688 175.667969 175.667969c0 40.320312-14.023438 79.71875-39.488282 110.925781-26.308594 32.082031-40.78125 72.554688-40.78125 114-.003906 4.597656-3.539062 15.007812-15.066406 15.007812zm0 0" fill="#ffefae"/><path d="m256 415.601562c11.527344 0 15.0625-10.410156 15.0625-15.007812 0-41.445312 14.476562-81.917969 40.78125-114 25.464844-31.207031 39.488281-70.605469 39.488281-110.925781.003907-96.863281-78.800781-175.667969-175.664062-175.667969v415.601562zm0 0" fill="#ffd422"/><path d="m175.667969 512c-34.855469 0-63.199219-28.34375-63.199219-63.183594 0-8.285156 6.714844-15.015625 15-15.015625h96.398438c8.285156 0 15 6.714844 15 15 0 34.847657-28.351563 63.199219-63.199219 63.199219zm0 0" fill="#0051bf"/><path d="m207.800781 415.601562c-8.285156 0-15-6.71875-15-15v-96.402343c0-1.90625.363281-3.796875 1.074219-5.570313l21.234375-53.09375-35.804687 8.949219c-2.390626.597656-4.886719.597656-7.277344 0l-35.804688-8.949219 21.238282 53.09375c.707031 1.773438 1.070312 3.664063 1.070312 5.570313v96.402343c0 8.28125-6.714844 15-15 15s-15-6.71875-15-15v-93.511718l-31.058594-77.652344c-2.09375-5.230469-1.078125-11.191406 2.625-15.433594 3.703125-4.246094 9.472656-6.054687 14.9375-4.691406l60.632813 15.160156 60.628906-15.15625c5.464844-1.371094 11.230469.441406 14.9375 4.6875 3.703125 4.242188 4.71875 10.203125 2.625 15.433594l-31.058594 77.652344v93.511718c0 8.28125-6.714843 15-15 15zm0 0" fill="#ff6a99"/><path d="m222.800781 400.601562v-93.511718l31.058594-77.652344c2.09375-5.230469 1.078125-11.191406-2.625-15.433594-3.703125-4.246094-9.472656-6.058594-14.9375-4.691406l-60.628906 15.160156v30.460938c1.222656 0 2.441406-.148438 3.636719-.449219l35.808593-8.949219-21.238281 53.097656c-.710938 1.769532-1.074219 3.660157-1.074219 5.566407v96.402343c0 8.28125 6.71875 15 15 15 8.285157 0 15-6.71875 15-15zm0 0" fill="#e7176e"/><path d="m223.867188 433.800781h-48.199219v78.199219c34.847656 0 63.199219-28.351562 63.199219-63.199219 0-8.285156-6.714844-15-15-15zm0 0" fill="#141b73"/><path d="m223.867188 463.800781h-96.398438c-12.417969 0-24.566406-5.035156-33.332031-13.816406-8.898438-8.894531-13.800781-20.730469-13.800781-33.316406v-16.066407h190.664062v16.066407c0 12.589843-4.902344 24.425781-13.800781 33.324219-8.886719 8.902343-20.726563 13.808593-33.332031 13.808593zm0 0" fill="#9ee2f8"/><path d="m175.667969 463.800781h48.199219c12.605468 0 24.441406-4.90625 33.332031-13.808593 8.898437-8.898438 13.800781-20.734376 13.800781-33.324219v-16.066407h-95.332031zm0 0" fill="#5ecef4"/></svg>