<?xml version="1.0"?>
<svg xmlns="http://www.w3.org/2000/svg" xmlns:xlink="http://www.w3.org/1999/xlink" xmlns:svgjs="http://svgjs.com/svgjs" version="1.1" width="512" height="512" x="0" y="0" viewBox="0 0 210 210" style="enable-background:new 0 0 512 512" xml:space="preserve"><g>
<g xmlns="http://www.w3.org/2000/svg" id="XMLID_103_">
	<path id="XMLID_104_" d="M115,0H95c-8.284,0-15,6.716-15,15v20c0,8.284,6.716,15,15,15h20c8.284,0,15-6.716,15-15V15   C130,6.716,123.284,0,115,0z" fill="#ffffff" data-original="#000000" style=""/>
	<path id="XMLID_105_" d="M115,80H95c-8.284,0-15,6.716-15,15v20c0,8.284,6.716,15,15,15h20c8.284,0,15-6.716,15-15V95   C130,86.716,123.284,80,115,80z" fill="#ffffff" data-original="#000000" style=""/>
	<path id="XMLID_106_" d="M115,160H95c-8.284,0-15,6.716-15,15v20c0,8.284,6.716,15,15,15h20c8.284,0,15-6.716,15-15v-20   C130,166.716,123.284,160,115,160z" fill="#ffffff" data-original="#000000" style=""/>
</g>
<g xmlns="http://www.w3.org/2000/svg">
</g>
<g xmlns="http://www.w3.org/2000/svg">
</g>
<g xmlns="http://www.w3.org/2000/svg">
</g>
<g xmlns="http://www.w3.org/2000/svg">
</g>
<g xmlns="http://www.w3.org/2000/svg">
</g>
<g xmlns="http://www.w3.org/2000/svg">
</g>
<g xmlns="http://www.w3.org/2000/svg">
</g>
<g xmlns="http://www.w3.org/2000/svg">
</g>
<g xmlns="http://www.w3.org/2000/svg">
</g>
<g xmlns="http://www.w3.org/2000/svg">
</g>
<g xmlns="http://www.w3.org/2000/svg">
</g>
<g xmlns="http://www.w3.org/2000/svg">
</g>
<g xmlns="http://www.w3.org/2000/svg">
</g>
<g xmlns="http://www.w3.org/2000/svg">
</g>
<g xmlns="http://www.w3.org/2000/svg">
</g>
</g></svg>
