<?xml version="1.0"?>
<svg xmlns="http://www.w3.org/2000/svg" xmlns:xlink="http://www.w3.org/1999/xlink" xmlns:svgjs="http://svgjs.com/svgjs" version="1.1" width="512" height="512" x="0" y="0" viewBox="0 0 362 362.66667" style="enable-background:new 0 0 512 512" xml:space="preserve"><g transform="matrix(5.449678256205722e-17,0.89,-0.89,5.449678256205722e-17,343.3872453784943,86.10398501157759)"><path xmlns="http://www.w3.org/2000/svg" d="m213.667969 181.332031c0 4.269531-1.28125 8.535157-3.628907 11.734375l-106.664062 160c-3.839844 5.761719-10.242188 9.601563-17.707031 9.601563h-64c-11.734375 0-21.335938-9.601563-21.335938-21.335938 0-4.265625 1.28125-8.53125 3.628907-11.730469l98.773437-148.269531-98.773437-148.265625c-2.347657-3.199218-3.628907-7.464844-3.628907-11.734375 0-11.730469 9.601563-21.332031 21.335938-21.332031h64c7.464843 0 13.867187 3.839844 17.707031 9.601562l106.664062 160c2.347657 3.199219 3.628907 7.464844 3.628907 11.730469zm0 0" fill="#2196f3" data-original="#2196f3" style=""/></g></svg>
