<svg height="512pt" viewBox="0 0 512 512" width="512pt" xmlns="http://www.w3.org/2000/svg"><path d="m512 256c0 141.386719-114.613281 256-256 256s-256-114.613281-256-256 114.613281-256 256-256 256 114.613281 256 256zm0 0" fill="#1A237E"/><path d="m267.472656 475.207031c54.699219-41.515625 26.34375-98.78125 26.34375-98.78125s-94.164062-158.238281-106.910156-158.238281c-78.601562-52.148438-33.203125-196.191406-32.933594-197.046875-90.605468 39.417969-153.972656 129.746094-153.972656 234.859375 0 134.816406 104.210938 245.292969 236.476562 255.265625 5.847657-11.816406 15.484376-24.285156 30.996094-36.058594zm0 0" fill="#1A237E"/><path d="m388.351562 218.1875h-76.003906c-10.234375 0-18.53125-8.300781-18.53125-18.535156v-76c0-20.886719-16.929687-37.816406-37.816406-37.816406-20.882812 0-37.8125 16.929687-37.8125 37.816406v76c0 10.234375-8.300781 18.535156-18.535156 18.535156h-76c-20.886719 0-37.816406 16.929688-37.816406 37.8125s16.929687 37.8125 37.816406 37.8125h76c10.234375 0 18.535156 8.300781 18.535156 18.535156v76c0 20.886719 16.929688 37.816406 37.8125 37.816406 20.886719 0 37.816406-16.929687 37.816406-37.816406v-76c0-10.234375 8.296875-18.535156 18.53125-18.535156h76.003906c20.882813 0 37.8125-16.929688 37.8125-37.8125s-16.929687-37.8125-37.8125-37.8125zm0 0" fill="#fffcdc"/></svg>