<?xml version="1.0" encoding="iso-8859-1"?>
<!-- Generator: Adobe Illustrator 19.0.0, SVG Export Plug-In . SVG Version: 6.00 Build 0)  -->
<svg version="1.1" id="Capa_1" xmlns="http://www.w3.org/2000/svg" xmlns:xlink="http://www.w3.org/1999/xlink" x="0px" y="0px"
	 viewBox="0 0 512 512" style="enable-background:new 0 0 512 512;" xml:space="preserve">
<path style="fill:#2196F3;" d="M458.667,192c-12.065,0.17-23.658,4.719-32.619,12.8c-5,4.764-11.42,7.76-18.283,8.533
	c-2.24-7.36-1.899-33.792,13.077-93.867c3.664-14.738-5.313-29.657-20.051-33.321c-2.199-0.547-4.456-0.819-6.722-0.812h-95.573
	c-8.442-0.004-16.041,5.12-19.2,12.949c-3.208,7.967-1.239,17.085,4.971,23.019c8.442,6.973,13.648,17.108,14.4,28.032
	c0,17.643-23.211,21.333-42.667,21.333s-42.667-3.691-42.667-21.333c0.773-10.932,6.002-21.067,14.464-28.032
	c6.215-5.93,8.185-15.052,4.971-23.019c-3.159-7.829-10.758-12.954-19.2-12.949h-95.637c-15.211-0.03-27.565,12.277-27.595,27.487
	c-0.004,2.24,0.264,4.471,0.8,6.646c14.933,59.968,15.36,86.421,13.099,93.867c-6.862-0.773-13.283-3.77-18.283-8.533
	c-8.961-8.081-20.553-12.63-32.619-12.8C21.333,192,0,230.528,0,256s21.333,64,53.333,64c12.065-0.17,23.658-4.719,32.619-12.8
	c5-4.764,11.42-7.76,18.283-8.533c2.24,7.36,1.92,33.813-13.099,93.867c-3.641,14.769,5.38,29.692,20.149,33.333
	c2.175,0.536,4.406,0.805,6.646,0.801h95.552c8.442,0.004,16.041-5.12,19.2-12.949c3.208-7.967,1.239-17.085-4.971-23.019
	c-8.434-6.977-13.632-17.112-14.379-28.032c0-17.643,23.211-21.333,42.667-21.333s42.667,3.691,42.667,21.333
	c-0.773,10.932-6.002,21.067-14.464,28.032c-6.215,5.93-8.185,15.052-4.971,23.019c3.159,7.829,10.758,12.954,19.2,12.949h95.552
	c15.187,0.048,27.538-12.224,27.586-27.411c0.007-2.266-0.266-4.523-0.812-6.722c-14.933-59.989-15.339-86.443-13.077-93.867
	c6.862,0.773,13.283,3.77,18.283,8.533c8.983,8.101,20.609,12.651,32.704,12.8c32,0,53.333-38.528,53.333-64
	S490.667,192,458.667,192z"/>
<g>
</g>
<g>
</g>
<g>
</g>
<g>
</g>
<g>
</g>
<g>
</g>
<g>
</g>
<g>
</g>
<g>
</g>
<g>
</g>
<g>
</g>
<g>
</g>
<g>
</g>
<g>
</g>
<g>
</g>
</svg>
