<?xml version="1.0" encoding="iso-8859-1"?>
<!-- Generator: Adobe Illustrator 19.0.0, SVG Export Plug-In . SVG Version: 6.00 Build 0)  -->
<svg version="1.1" id="Capa_1" xmlns="http://www.w3.org/2000/svg" xmlns:xlink="http://www.w3.org/1999/xlink" x="0px" y="0px"
	 viewBox="0 0 512 512" style="enable-background:new 0 0 512 512;" xml:space="preserve">
<path style="fill:#3AAAFF;" d="M406,241c7.8,0,15.601,2.1,22.5,6c9.901,5.7,22.5-1.501,22.5-12.902V105c0-8.401-6.599-15-15-15
	H329.5c0.899-4.801,1.5-9.901,1.5-15c0-41.4-33.6-75-75-75s-75,33.6-75,75c0,5.099,0.601,10.199,1.5,15H76c-8.401,0-15,6.599-15,15
	v129.099c0,11.4,12.599,18.602,22.5,12.902c6.899-3.9,14.7-6,22.5-6c24.901,0,45,20.099,45,45c0,24.899-20.099,45-45,45
	c-7.8,0-15.601-2.1-22.5-6c-10.201-6-22.5,1.5-22.5,12.9V497c0,8.399,6.599,15,15,15h128.101c11.4,0,18.6-12.601,12.9-22.5
	c-3.9-6.901-6-14.7-6-22.5c0-24.901,20.099-45,45-45s45,20.099,45,45c0,7.8-2.1,15.599-6,22.5c-5.7,9.899,1.5,22.5,12.9,22.5H436
	c8.401,0,15-6.601,15-15V337.899c0-11.4-12.599-18.6-22.5-12.9c-6.899,3.9-14.7,6-22.5,6c-24.901,0-45-20.101-45-45
	C361,261.099,381.099,241,406,241z"/>
<path style="fill:#0095FF;" d="M361,286c0,24.899,20.099,45,45,45c7.8,0,15.601-2.1,22.5-6c9.901-5.7,22.5,1.5,22.5,12.9V497
	c0,8.399-6.599,15-15,15H307.899c-11.4,0-18.6-12.601-12.9-22.5c3.9-6.901,6-14.7,6-22.5c0-24.901-20.099-45-45-45V0
	c41.4,0,75,33.6,75,75c0,5.099-0.601,10.199-1.5,15H436c8.401,0,15,6.599,15,15v129.099c0,11.4-12.599,18.602-22.5,12.902
	c-6.899-3.9-14.7-6-22.5-6C381.099,241,361,261.099,361,286z"/>
<g>
</g>
<g>
</g>
<g>
</g>
<g>
</g>
<g>
</g>
<g>
</g>
<g>
</g>
<g>
</g>
<g>
</g>
<g>
</g>
<g>
</g>
<g>
</g>
<g>
</g>
<g>
</g>
<g>
</g>
</svg>
