<?xml version="1.0" encoding="iso-8859-1"?>
<!-- Generator: Adobe Illustrator 19.0.0, SVG Export Plug-In . SVG Version: 6.00 Build 0)  -->
<svg version="1.1" id="Layer_1" xmlns="http://www.w3.org/2000/svg" xmlns:xlink="http://www.w3.org/1999/xlink" x="0px" y="0px"
	 viewBox="0 0 496 496" style="enable-background:new 0 0 496 496;" xml:space="preserve">
<path style="fill:#F8571D;" d="M436.384,184.496c-14.208,0-27.28,4.984-37.544,13.264c-36.352-22.632-82.488-36.288-131.92-39.16
	l25.792-80.8l70.88,16.528c1.864,25.576,23.44,45.816,49.704,45.816c27.48,0,49.856-22.16,49.856-49.408
	c0-27.224-22.376-49.392-49.856-49.392c-19.208,0-35.92,10.84-44.248,26.672L286.68,48.808c-6.896-1.616-13.864,2.32-16.016,9.024
	l-32.024,100.28c-53.272,1.304-103.36,14.984-142.376,38.928c-10.12-7.832-22.84-12.544-36.64-12.544
	C26.752,184.496,0,211,0,243.568c0,20.144,10.224,37.936,25.816,48.592c-0.656,4.688-0.992,9.392-0.992,14.184
	c0,40.712,23.88,78.576,67.256,106.624c41.568,26.888,96.608,41.688,154.92,41.688c58.32,0,113.344-14.8,154.92-41.688
	c43.36-28.048,67.256-65.912,67.256-106.624c0-4.344-0.304-8.672-0.832-12.968c16.6-10.48,27.656-28.88,27.656-49.808
	C496,211,469.264,184.496,436.384,184.496z M413.296,68.176c12.56,0,22.776,10.136,22.776,22.552
	c0,12.448-10.216,22.552-22.776,22.552s-22.768-10.112-22.768-22.552C390.52,78.312,400.736,68.176,413.296,68.176z M140.648,280.12
	c0-18.36,15.552-33.76,34.08-33.76s33.568,15.4,33.568,33.76s-15.04,33.264-33.568,33.264S140.648,298.48,140.648,280.12z
	 M329.656,377.944c-17.272,17.08-43.896,25.392-81.4,25.392c-0.088,0-0.168-0.016-0.264-0.016s-0.168,0.016-0.264,0.016
	c-37.512,0-64.128-8.312-81.376-25.392c-5.304-5.248-5.304-13.752,0-18.984c5.28-5.232,13.856-5.232,19.16,0
	c11.912,11.8,32.264,17.544,62.216,17.544c0.096,0,0.168,0.016,0.264,0.016s0.176-0.016,0.264-0.016
	c29.952,0,50.32-5.752,62.248-17.544c5.296-5.248,13.864-5.232,19.152,0C334.944,364.208,334.944,372.712,329.656,377.944z
	 M321.792,313.384c-18.536,0-34.12-14.904-34.12-33.264c0-18.376,15.576-33.76,34.12-33.76s33.576,15.384,33.576,33.76
	C355.368,298.48,340.328,313.384,321.792,313.384z"/>
<g>
	<path style="fill:#E23C0A;" d="M422.52,70.168c7.968,3.52,13.544,11.4,13.544,20.568c0,9.784-6.344,18.032-15.144,21.168
		c-1.12,9.504-2.712,18.888-4.8,28.104c26.168-1.472,47.016-22.968,47.016-49.264c0-24.976-18.848-45.64-43.176-48.888
		C421.304,51.16,422.168,60.6,422.52,70.168z"/>
	<path style="fill:#E23C0A;" d="M496,243.568c0-32.568-26.736-59.08-59.616-59.08c-14.208,0-27.28,4.984-37.544,13.264
		c-0.736-0.456-1.52-0.848-2.256-1.304c-11.68,24.688-26.92,47.584-45.2,68.136c2.456,4.688,3.992,9.92,3.992,15.528
		c0,18.36-15.04,33.264-33.576,33.264c-6.72,0-13.024-2.008-18.368-5.376c-33.504,24.528-72.528,42.952-115.128,53.32
		c12.168,10.152,31.616,15.176,59.432,15.176c0.096,0,0.168,0.016,0.264,0.016s0.176-0.016,0.264-0.016
		c29.952,0,50.32-5.752,62.248-17.544c5.296-5.248,13.864-5.232,19.152,0c5.288,5.248,5.288,13.752,0,18.984
		c-17.272,17.08-43.896,25.392-81.4,25.392c-0.088,0-0.168-0.016-0.264-0.016s-0.168,0.016-0.264,0.016
		c-37.512,0-64.128-8.312-81.376-25.392c-3.16-3.144-4.4-7.408-3.792-11.472c-17.848,2.888-36.176,4.496-54.912,4.496
		c-22.392,0-44.216-2.184-65.28-6.28c11.392,17.952,28.136,34.328,49.712,48.28c41.568,26.888,96.608,41.688,154.92,41.688
		c58.32,0,113.344-14.8,154.92-41.688c43.36-28.048,67.256-65.912,67.256-106.624c0-4.344-0.304-8.672-0.832-12.968
		C484.944,282.896,496,264.496,496,243.568z"/>
</g>
<path style="fill:#FF7F00;" d="M55.968,294.76c30.616,0,59.544-7.12,85.208-19.704c2.552-16.032,16.768-28.696,33.544-28.696
	c2.776,0,5.424,0.44,8.008,1.088c30.92-26.952,52.872-63.6,60.944-105.12l-5.04,15.784c-53.272,1.304-103.36,14.984-142.376,38.928
	c-10.12-7.832-22.84-12.544-36.64-12.544C26.752,184.496,0,211,0,243.568c0,20.144,10.224,37.936,25.816,48.592
	c-0.016,0.088-0.016,0.168-0.024,0.24C35.624,293.944,45.696,294.76,55.968,294.76z"/>
<g>
</g>
<g>
</g>
<g>
</g>
<g>
</g>
<g>
</g>
<g>
</g>
<g>
</g>
<g>
</g>
<g>
</g>
<g>
</g>
<g>
</g>
<g>
</g>
<g>
</g>
<g>
</g>
<g>
</g>
</svg>
