<svg id="Capa_1" enable-background="new 0 0 497 497" height="512" viewBox="0 0 497 497" width="512" xmlns="http://www.w3.org/2000/svg"><g><path d="m496.944 222.073c-1.46-38.365-32.209-69.754-70.54-71.947-15.128-.865-29.35 2.76-41.463 9.663-8.816 5.023-19.55 5.245-28.584.625l103.143 155.586c0-2.958-.085-5.898-.251-8.821-.536-9.444 3.544-18.536 10.803-24.6 17.161-14.334 27.817-36.192 26.892-60.506z" fill="#e5faff"/><path d="m467 225c0-24.853-20.147-45-45-45-9.206 0-17.766 2.763-24.895 7.507l52.359 73.193c10.662-8.271 17.536-21.183 17.536-35.7z" fill="#47d4ff"/><path d="m.056 222.073c1.46-38.365 32.209-69.754 70.54-71.947 15.128-.865 29.35 2.76 41.463 9.663 8.816 5.023 19.55 5.245 28.584.625l-103.143 155.586c0-2.958.085-5.898.251-8.821.536-9.444-3.544-18.536-10.803-24.6-17.161-14.334-27.817-36.192-26.892-60.506z" fill="#e5faff"/><path d="m30 225c0-24.853 20.147-45 45-45 9.206 0 17.766 2.763 24.895 7.507l-52.359 73.193c-10.662-8.271-17.536-21.183-17.536-35.7z" fill="#47d4ff"/><path d="m248.5 135v362c116.532 0 211-81.036 211-181s-94.468-181-211-181z" fill="#bdf2ff"/><path d="m429.5 316c0-99.964-81.036-181-181-181-116.532 0-211 81.036-211 181s94.468 181 211 181c99.964 0 181-81.036 181-181z" fill="#e5faff"/><path d="m338.5 211v105c28.995 0 52.5-23.505 52.5-52.5s-23.505-52.5-52.5-52.5z" fill="#e33a38"/><path d="m361 263.5c0-28.995-10.074-52.5-22.5-52.5-28.995 0-52.5 23.505-52.5 52.5s23.505 52.5 52.5 52.5c12.426 0 22.5-23.505 22.5-52.5z" fill="#ff443b"/><path d="m158.5 211v105c28.995 0 52.5-23.505 52.5-52.5s-23.505-52.5-52.5-52.5z" fill="#e33a38"/><path d="m181 263.5c0-28.995-10.074-52.5-22.5-52.5-28.995 0-52.5 23.505-52.5 52.5s23.505 52.5 52.5 52.5c12.426 0 22.5-23.505 22.5-52.5z" fill="#ff443b"/><path d="m295.16 394.75c.01.01-46.66 0-46.66 0l37.5-48.75h30c0 19.17-7.99 36.48-20.84 48.75z" fill="#47d4ff"/><path d="m181 346c0 19.17 7.99 36.48 20.83 48.76.01-.01 77.82-11.15 77.82-11.15 4.01-10.74 6.35-23.69 6.35-37.61z" fill="#8ae7ff"/><path d="m295.16 394.75c-12.11 11.61-28.55 18.75-46.66 18.75l31.15-29.89c5.69 2.97 10.91 6.74 15.51 11.14z" fill="#725fee"/><path d="m279.65 383.61c-6.74 18.03-18.18 29.89-31.15 29.89-18.11 0-34.55-7.13-46.67-18.74 12.13-11.62 28.56-18.76 46.67-18.76 11.24 0 21.83 2.75 31.15 7.61z" fill="#8a7af1"/><path d="m308.559 28.2-41.892 20.945c-20.458 10.229-33.167 30.793-33.167 53.667v62.644h30v-62.644c0-11.437 6.354-21.719 16.583-26.833l41.889-20.945z" fill="#e5faff"/><circle cx="338.5" cy="30" fill="#bdf2ff" r="30"/></g></svg>