<?xml version="1.0" encoding="iso-8859-1"?>
<!-- Generator: Adobe Illustrator 19.0.0, SVG Export Plug-In . SVG Version: 6.00 Build 0)  -->
<svg version="1.1" id="Layer_1" xmlns="http://www.w3.org/2000/svg" xmlns:xlink="http://www.w3.org/1999/xlink" x="0px" y="0px"
	 viewBox="0 0 512 512" style="enable-background:new 0 0 512 512;" xml:space="preserve">
<path style="fill:#FF9800;" d="M476.292,0H35.708C16.018,0,0,16.018,0,35.708v440.584C0,495.982,16.018,512,35.708,512h440.584
	c19.69,0,35.708-16.018,35.708-35.708V35.708C512,16.018,495.982,0,476.292,0z"/>
<path style="fill:#F7DC4D;" d="M256,0H35.708C16.018,0,0,16.018,0,35.708v440.584C0,495.982,16.018,512,35.708,512H256V0z"/>
<g>
	<path style="fill:#1D1D1F;" d="M302.283,407.467c0,9.741-7.897,17.637-17.637,17.637h-37.388c-9.741,0-17.637-7.897-17.637-17.637
		v-18.695c0-58.006-47.19-105.196-105.196-105.196h-18.696c-9.741,0-17.637-7.897-17.637-17.637v-37.388
		c0-9.741,7.897-17.637,17.637-17.637h18.695c98.073,0,177.86,79.788,177.86,177.86V407.467z"/>
	<path style="fill:#1D1D1F;" d="M432.803,407.467c0,9.741-7.897,17.637-17.637,17.637h-37.388c-9.741,0-17.637-7.897-17.637-17.637
		v-18.695c0-129.974-105.741-235.716-235.716-235.716H105.73c-9.741,0-17.637-7.897-17.637-17.637V98.031
		c0-9.741,7.897-17.637,17.637-17.637h18.695c82.372,0,159.812,32.077,218.057,90.322s90.322,135.687,90.322,218.057v18.694H432.803
		z"/>
	<circle style="fill:#1D1D1F;" cx="125.194" cy="385.61" r="46.002"/>
</g>
<g>
	<path style="fill:#3E3E42;" d="M124.424,210.913h-18.695c-9.74,0-17.637,7.897-17.637,17.637v37.388
		c0,9.741,7.897,17.637,17.637,17.637h18.695c58.006,0,105.196,47.19,105.196,105.196v18.695c0,9.741,7.897,17.637,17.637,17.637
		h8.004V268.428C222.735,233.092,176.124,210.913,124.424,210.913z"/>
	<path style="fill:#3E3E42;" d="M124.424,80.393h-18.695c-9.741,0-17.637,7.897-17.637,17.637v37.388
		c0,9.741,7.897,17.637,17.637,17.637h18.695c48.372,0,93.381,14.653,130.837,39.744v-83.443
		C214.838,90.397,170.401,80.393,124.424,80.393z"/>
	<circle style="fill:#3E3E42;" cx="125.194" cy="385.61" r="46.002"/>
</g>
<g>
</g>
<g>
</g>
<g>
</g>
<g>
</g>
<g>
</g>
<g>
</g>
<g>
</g>
<g>
</g>
<g>
</g>
<g>
</g>
<g>
</g>
<g>
</g>
<g>
</g>
<g>
</g>
<g>
</g>
</svg>
