<?xml version="1.0" encoding="iso-8859-1"?>
<!-- Generator: Adobe Illustrator 21.0.0, SVG Export Plug-In . SVG Version: 6.00 Build 0)  -->
<svg xmlns="http://www.w3.org/2000/svg" xmlns:xlink="http://www.w3.org/1999/xlink" version="1.1" id="Capa_1" x="0px" y="0px" viewBox="0 0 512 512" style="enable-background:new 0 0 512 512;" xml:space="preserve" width="512" height="512">
<g>
	<path style="fill:#FF9100;" d="M367.961,144.037c-85.496-85.499-198.896-136.5-319.197-144c-4.2-0.3-8.101,1.201-11.104,4.2   c-2.996,2.701-4.797,6.601-4.797,10.8v90.601c0,7.8,5.999,14.399,13.799,15c88.799,6.301,172.8,45,236.404,108.3   c63.296,63.6,101.997,147.301,108.596,236.4c0.601,7.8,7.2,13.801,15,13.801h90.3c4.2,0,8.101-1.8,10.803-4.801   c2.996-2.999,4.497-6.899,4.197-11.1C504.462,342.938,453.464,229.538,367.961,144.037z"/>
	<path style="fill:#FF9100;" d="M240.461,271.537c-50.098-50.099-116.997-83.399-191.096-90.899c-4.204-0.3-8.401,0.899-11.704,3.9   c-2.996,2.699-4.797,6.899-4.797,11.1v90.899c0,7.5,5.398,13.801,12.898,15c41.704,5.7,79.805,24.6,110.101,54.6   c30,30.3,48.9,68.401,54.598,110.101c1.201,7.5,7.5,12.9,15,12.9h90.901c4.204,0,8.401-1.8,11.104-4.801   c2.996-3.3,4.197-7.5,3.896-11.699C323.862,388.538,290.566,321.639,240.461,271.537z"/>
	<path style="fill:#FF9100;" d="M128.101,383.899C114.602,370.399,95.698,362,75,362c-41.4,0-75,33.6-75,75   c0,20.7,8.401,39.6,21.899,53.099C35.398,503.599,54.302,512,75,512c32.703,0,60.601-21,70.8-50.101   c1.201-3.3,2.098-6.599,2.699-9.899c0.901-5.4,1.501-10.201,1.501-15C150,416.3,141.599,397.4,128.101,383.899z"/>
	<path style="fill:#FF641A;" d="M150,437c0,4.799-0.601,9.6-1.501,15c-0.601,3.3-1.498,6.599-2.699,9.899   C135.601,491,107.703,512,75,512c-20.698,0-39.602-8.401-53.101-21.901l106.201-106.199C141.599,397.4,150,416.3,150,437z"/>
	<path style="fill:#FF641A;" d="M240.463,271.537c50.101,50.101,83.401,117.001,90.901,191.102c0.3,4.199-0.901,8.399-3.9,11.699   c-2.701,3.001-6.899,4.801-11.1,4.801h-90.901c-7.5,0-13.799-5.4-15-12.9c-5.7-41.7-24.6-79.801-54.6-110.101L240.463,271.537z"/>
	<path style="fill:#FF641A;" d="M511.962,463.238c0.3,4.2-1.199,8.101-4.199,11.1c-2.701,3.001-6.601,4.801-10.801,4.801h-90.298   c-7.8,0-14.401-6-15-13.801c-6.601-89.099-45.3-172.8-108.6-236.4l84.899-84.901C453.464,229.538,504.462,342.938,511.962,463.238z   "/>
</g>















</svg>
