<?xml version="1.0" encoding="iso-8859-1"?>
<!-- Generator: Adobe Illustrator 19.0.0, SVG Export Plug-In . SVG Version: 6.00 Build 0)  -->
<svg version="1.1" id="Capa_1" xmlns="http://www.w3.org/2000/svg" xmlns:xlink="http://www.w3.org/1999/xlink" x="0px" y="0px"
	 viewBox="0 0 512 512" style="enable-background:new 0 0 512 512;" xml:space="preserve">
<path style="fill:#61DE56;" d="M461.144,60.883L260.311,0.633c-2.812-0.844-5.809-0.844-8.621,0L50.856,60.883
	c-6.345,1.903-10.689,7.743-10.689,14.367v220.916c0,28.734,11.632,58.149,34.573,87.425c17.521,22.36,41.763,44.814,72.049,66.736
	c50.877,36.828,100.975,59.42,103.082,60.363c1.95,0.873,4.04,1.31,6.13,1.31c2.09,0,4.18-0.436,6.13-1.31
	c2.107-0.943,52.205-23.535,103.082-60.363c30.285-21.923,54.525-44.376,72.047-66.736c22.941-29.276,34.573-58.69,34.573-87.425
	V75.25C471.833,68.626,467.488,62.786,461.144,60.883z"/>
<path style="fill:#13C37B;" d="M461.144,60.883L260.311,0.633C258.905,0.211,257.452,0,256,0v512h0.001c2.09,0,4.18-0.436,6.13-1.31
	c2.107-0.943,52.205-23.535,103.082-60.363c30.285-21.923,54.525-44.376,72.047-66.736c22.941-29.276,34.573-58.69,34.573-87.425
	V75.25C471.833,68.626,467.488,62.786,461.144,60.883z"/>
<g>
</g>
<g>
</g>
<g>
</g>
<g>
</g>
<g>
</g>
<g>
</g>
<g>
</g>
<g>
</g>
<g>
</g>
<g>
</g>
<g>
</g>
<g>
</g>
<g>
</g>
<g>
</g>
<g>
</g>
</svg>
