<?xml version="1.0" encoding="iso-8859-1"?>
<!-- Generator: Adobe Illustrator 19.0.0, SVG Export Plug-In . SVG Version: 6.00 Build 0)  -->
<svg version="1.1" id="Capa_1" xmlns="http://www.w3.org/2000/svg" xmlns:xlink="http://www.w3.org/1999/xlink" x="0px" y="0px"
	 viewBox="0 0 512 512" style="enable-background:new 0 0 512 512;" xml:space="preserve">
<path style="fill:#F5F2FC;" d="M148.652,181.979L72.873,115.74c-6.25-5.462-15.745-4.824-21.207,1.425s-4.825,15.745,1.424,21.207
	l75.77,66.231C134.337,196.132,141.015,188.512,148.652,181.979z"/>
<path style="fill:#BFBCD6;" d="M291.334,189.415L384.8,70.457c5.128-6.528,3.994-15.975-2.533-21.104s-15.974-3.993-21.103,2.532
	L267.71,170.829C276.469,175.862,284.423,182.139,291.334,189.415z"/>
<path style="fill:#F5F2FC;" d="M142.355,333.918l-80.47,107.035c-4.988,6.634-3.653,16.056,2.982,21.044
	c2.707,2.035,5.876,3.018,9.02,3.018c4.563-0.001,9.072-2.07,12.024-5.999L166.369,352
	C157.498,347.15,149.415,341.043,142.355,333.918z"/>
<path style="fill:#BFBCD6;" d="M425.695,369.956l-113.935-68.832c-3.937,9.348-9.203,18-15.563,25.716l113.955,68.844
	c7.105,4.292,16.343,2.013,20.635-5.092C435.081,383.487,432.8,374.249,425.695,369.956z"/>
<path style="fill:#35ABF0;" d="M216.074,144.643c-64.09,0-116.231,52.142-116.231,116.232s52.142,116.231,116.231,116.231
	s116.231-52.141,116.231-116.231S280.164,144.643,216.074,144.643z"/>
<path style="fill:#16DCFA;" d="M216.074,144.643c-64.09,0-116.231,52.142-116.231,116.232s52.142,116.231,116.231,116.231V144.643z"
	/>
<path style="fill:#0C84BF;" d="M62.982,75.957c-28.177,0-51.1,22.923-51.1,51.099s22.923,51.1,51.1,51.1
	c28.176,0,51.1-22.924,51.1-51.1S91.158,75.957,62.982,75.957z"/>
<path style="fill:#35ABF0;" d="M62.982,75.957c-28.177,0-51.1,22.923-51.1,51.099s22.923,51.1,51.1,51.1V75.957z"/>
<path style="fill:#0C84BF;" d="M372.98,0c-33.73,0-61.17,27.441-61.17,61.169s27.441,61.17,61.17,61.17
	c33.729,0,61.17-27.442,61.17-61.17S406.71,0,372.98,0z"/>
<path style="fill:#35ABF0;" d="M372.98,0c-33.73,0-61.17,27.441-61.17,61.169s27.441,61.17,61.17,61.17V0z"/>
<path style="fill:#0C84BF;" d="M417.924,300.627c-45.323,0-82.195,36.871-82.195,82.193s36.872,82.195,82.195,82.195
	c45.322,0,82.194-36.873,82.194-82.195S463.246,300.627,417.924,300.627z"/>
<path style="fill:#35ABF0;" d="M417.924,300.627c-45.323,0-82.195,36.871-82.195,82.193s36.872,82.195,82.195,82.195V300.627z"/>
<path style="fill:#0C84BF;" d="M73.898,387.969c-34.196,0-62.016,27.819-62.016,62.015S39.702,512,73.898,512
	c34.196,0,62.015-27.82,62.015-62.016S108.093,387.969,73.898,387.969z"/>
<path style="fill:#35ABF0;" d="M73.898,387.969c-34.196,0-62.016,27.819-62.016,62.015S39.702,512,73.898,512V387.969z"/>
<g>
</g>
<g>
</g>
<g>
</g>
<g>
</g>
<g>
</g>
<g>
</g>
<g>
</g>
<g>
</g>
<g>
</g>
<g>
</g>
<g>
</g>
<g>
</g>
<g>
</g>
<g>
</g>
<g>
</g>
</svg>
