<svg enable-background="new 0 0 24 24" height="512" viewBox="0 0 24 24" width="512" xmlns="http://www.w3.org/2000/svg"><path d="m23.695 4.975c-.079-.25-.283-.441-.538-.503-.254-.062-.523.013-.708.198l-3.168 3.168-2.425-.694-.694-2.425 3.167-3.168c.186-.186.26-.454.198-.709-.062-.254-.252-.458-.502-.537-.639-.202-1.32-.305-2.025-.305-3.86 0-7 3.141-7 7 0 .817.137 1.605.408 2.352l-9.528 9.528c-.568.567-.88 1.319-.88 2.12s.312 1.553.88 2.12c.567.568 1.32.88 2.12.88s1.553-.312 2.12-.88l9.528-9.528c.746.271 1.535.408 2.352.408 3.86 0 7-3.141 7-7 0-.705-.103-1.387-.305-2.025z" fill="#00bcd4"/><path d="m22.98 4.45c-.196 0-.388.077-.53.22l-3.168 3.168-2.425-.694-.003-.011-15.982 15.98c.002.003.005.005.008.008.567.567 1.32.879 2.12.879s1.553-.312 2.12-.88l9.528-9.528c.746.271 1.535.408 2.352.408 3.86 0 7-3.141 7-7 0-.705-.103-1.387-.305-2.025-.079-.25-.283-.441-.538-.503-.058-.015-.118-.022-.177-.022z" fill="#00a4b9"/></svg>